<svg id="svg" version="1.1" xmlns="http://www.w3.org/2000/svg" xmlns:xlink="http://www.w3.org/1999/xlink" width="400" height="400" viewBox="0, 0, 400,400"><g id="svgg"><path id="path0" d="M78.400 124.198 L 78.400 137.996 116.500 138.098 L 154.600 138.200 154.600 200.400 L 154.600 262.600 117.600 262.600 L 80.600 262.600 80.400 237.200 L 80.200 211.800 66.600 211.800 L 53.000 211.800 52.897 238.300 L 52.794 264.800 65.117 264.800 C 74.168 264.800,77.567 264.927,77.920 265.280 C 78.273 265.633,78.400 269.031,78.400 278.080 L 78.400 290.400 117.600 290.400 L 156.800 290.400 156.800 278.229 C 156.800 267.697,156.885 265.972,157.429 265.429 C 157.973 264.884,159.715 264.800,170.429 264.800 L 182.800 264.800 182.800 200.400 L 182.800 136.000 170.429 136.000 C 159.715 136.000,157.973 135.916,157.429 135.371 C 156.885 134.828,156.800 133.103,156.800 122.571 L 156.800 110.400 117.600 110.400 L 78.400 110.400 78.400 124.198 M217.600 174.800 C 217.600 182.280,217.645 188.443,217.700 188.495 C 217.755 188.547,234.990 188.682,256.000 188.795 L 294.200 189.000 294.200 200.200 L 294.200 211.400 281.400 211.600 L 268.600 211.800 268.400 224.400 L 268.200 237.000 255.706 237.106 L 243.211 237.211 243.106 249.906 L 243.000 262.600 230.300 262.706 L 217.600 262.811 217.600 276.606 L 217.600 290.400 282.600 290.400 L 347.600 290.400 347.600 276.602 L 347.600 262.804 309.300 262.702 L 271.000 262.600 270.894 251.106 L 270.788 239.611 283.694 239.506 L 296.600 239.400 296.706 226.700 L 296.811 214.000 309.206 214.000 L 321.600 214.000 321.606 201.900 C 321.609 195.245,321.754 189.578,321.926 189.306 C 322.162 188.934,325.367 188.785,334.820 188.706 L 347.400 188.600 347.505 174.900 L 347.611 161.200 282.605 161.200 L 217.600 161.200 217.600 174.800 " stroke="none" fill="#fafafa" fill-rule="evenodd"></path><path id="path1" d="M78.182 110.503 C 78.076 110.779,78.037 117.124,78.095 124.603 L 78.200 138.200 116.462 138.400 C 137.506 138.510,154.640 138.465,154.538 138.300 C 154.436 138.135,137.263 138.000,116.376 138.000 L 78.400 138.000 78.400 124.200 L 78.400 110.400 117.600 110.400 L 156.800 110.400 156.800 122.571 C 156.800 133.103,156.885 134.828,157.429 135.371 C 157.973 135.916,159.715 136.000,170.429 136.000 L 182.800 136.000 182.800 200.400 L 182.800 264.800 170.429 264.800 C 159.715 264.800,157.973 264.884,157.429 265.429 C 156.885 265.972,156.800 267.697,156.800 278.229 L 156.800 290.400 117.600 290.400 L 78.400 290.400 78.400 278.080 C 78.400 269.031,78.273 265.633,77.920 265.280 C 77.567 264.927,74.168 264.800,65.117 264.800 L 52.794 264.800 52.897 238.300 L 53.000 211.800 66.600 211.800 L 80.200 211.800 80.400 237.200 L 80.600 262.600 117.378 262.702 C 137.606 262.758,154.292 262.668,154.458 262.502 C 154.624 262.336,138.119 262.247,117.780 262.304 L 80.800 262.408 80.800 237.047 C 80.800 214.290,80.735 211.661,80.167 211.443 C 79.341 211.126,53.859 211.126,53.033 211.443 C 52.464 211.661,52.400 214.413,52.400 238.443 L 52.400 265.200 64.700 265.206 C 71.465 265.209,77.222 265.353,77.494 265.526 C 77.865 265.762,78.015 268.927,78.094 278.220 L 78.200 290.600 117.600 290.600 L 157.000 290.600 157.106 278.344 C 157.188 268.781,157.327 265.992,157.740 265.650 C 158.091 265.358,162.406 265.176,170.634 265.106 L 183.000 265.000 183.000 200.400 L 183.000 135.800 170.634 135.694 C 162.324 135.623,158.093 135.443,157.734 135.145 C 157.310 134.793,157.200 132.162,157.200 122.351 L 157.200 110.000 117.787 110.000 C 86.516 110.000,78.335 110.104,78.182 110.503 M217.468 161.065 C 216.758 161.775,217.179 188.801,217.900 188.768 C 218.318 188.750,218.399 188.656,218.100 188.535 C 217.714 188.379,217.600 185.246,217.600 174.767 L 217.600 161.200 282.610 161.200 L 347.620 161.200 347.510 174.980 C 347.450 182.560,347.537 188.623,347.705 188.455 C 347.873 188.287,347.963 182.041,347.905 174.575 L 347.800 161.000 282.768 160.899 C 247.000 160.843,217.615 160.918,217.468 161.065 M293.800 199.920 L 293.800 211.000 281.434 211.106 C 273.124 211.177,268.893 211.357,268.534 211.655 C 268.110 212.007,268.000 214.637,268.000 224.443 L 268.000 236.789 255.600 236.903 L 243.200 237.017 255.700 237.009 L 268.200 237.000 268.400 224.400 L 268.600 211.800 281.400 211.600 L 294.200 211.400 294.307 200.427 C 294.365 194.391,294.275 189.315,294.107 189.146 C 293.938 188.978,293.800 193.826,293.800 199.920 M321.778 201.800 C 321.778 208.620,321.832 211.466,321.899 208.125 C 321.966 204.784,321.966 199.204,321.899 195.725 C 321.833 192.246,321.778 194.980,321.778 201.800 M242.894 249.894 L 242.800 262.389 230.300 262.500 L 217.800 262.612 230.313 262.706 C 240.078 262.779,242.868 262.689,243.019 262.296 C 243.125 262.019,243.162 256.304,243.100 249.596 L 242.988 237.400 242.894 249.894 M270.894 251.100 L 271.000 262.600 309.000 262.603 L 347.000 262.606 309.088 262.501 L 271.176 262.396 271.288 250.998 C 271.350 244.729,271.262 239.600,271.094 239.600 C 270.925 239.600,270.835 244.775,270.894 251.100 M217.392 276.600 L 217.400 290.600 282.600 290.600 L 347.800 290.600 347.808 276.600 L 347.816 262.600 347.703 276.500 L 347.590 290.400 282.600 290.400 L 217.610 290.400 217.497 276.500 L 217.384 262.600 217.392 276.600 " stroke="none" fill="#8c8c8c" fill-rule="evenodd"></path><path id="path2" d="M30.100 0.291 C 29.165 0.376,28.400 0.616,28.400 0.823 C 28.400 1.030,27.961 1.200,27.424 1.200 C 26.887 1.200,26.336 1.380,26.200 1.600 C 26.064 1.820,25.513 2.000,24.976 2.000 C 24.439 2.000,24.000 2.180,24.000 2.400 C 24.000 2.620,23.640 2.800,23.200 2.800 C 22.760 2.800,22.400 2.980,22.400 3.200 C 22.400 3.420,22.040 3.600,21.600 3.600 C 21.160 3.600,20.800 3.780,20.800 4.000 C 20.800 4.220,20.440 4.400,20.000 4.400 C 19.560 4.400,19.200 4.580,19.200 4.800 C 19.200 5.020,18.975 5.200,18.700 5.201 C 18.425 5.201,17.570 5.741,16.800 6.400 C 16.030 7.059,15.260 7.599,15.089 7.599 C 14.167 7.602,7.600 14.356,7.600 15.301 C 7.600 15.588,7.240 16.083,6.800 16.400 C 6.360 16.717,6.000 17.207,6.000 17.488 C 6.000 17.770,5.820 18.000,5.600 18.000 C 5.380 18.000,5.200 18.270,5.200 18.600 C 5.200 18.930,5.020 19.200,4.800 19.200 C 4.580 19.200,4.400 19.560,4.400 20.000 C 4.400 20.440,4.220 20.800,4.000 20.800 C 3.780 20.800,3.600 21.160,3.600 21.600 C 3.600 22.040,3.420 22.400,3.200 22.400 C 2.980 22.400,2.800 22.760,2.800 23.200 C 2.800 23.640,2.620 24.000,2.400 24.000 C 2.180 24.000,2.000 24.439,2.000 24.976 C 2.000 25.513,1.820 26.064,1.600 26.200 C 1.380 26.336,1.200 26.872,1.200 27.390 C 1.200 27.909,0.975 28.408,0.700 28.500 C -0.036 28.745,-0.036 371.255,0.700 371.500 C 0.975 371.592,1.200 372.091,1.200 372.610 C 1.200 373.128,1.380 373.664,1.600 373.800 C 1.820 373.936,2.000 374.487,2.000 375.024 C 2.000 375.561,2.180 376.000,2.400 376.000 C 2.620 376.000,2.800 376.360,2.800 376.800 C 2.800 377.240,2.980 377.600,3.200 377.600 C 3.420 377.600,3.600 377.960,3.600 378.400 C 3.600 378.840,3.780 379.200,4.000 379.200 C 4.220 379.200,4.400 379.560,4.400 380.000 C 4.400 380.440,4.580 380.800,4.800 380.800 C 5.020 380.800,5.200 381.070,5.200 381.400 C 5.200 381.730,5.380 382.000,5.600 382.000 C 5.820 382.000,6.000 382.230,6.000 382.512 C 6.000 382.793,6.360 383.283,6.800 383.600 C 7.240 383.917,7.600 384.412,7.600 384.699 C 7.600 385.807,13.392 391.577,15.700 392.768 C 16.305 393.080,16.800 393.485,16.800 393.668 C 16.800 393.850,17.070 394.000,17.400 394.000 C 17.730 394.000,18.000 394.180,18.000 394.400 C 18.000 394.620,18.270 394.800,18.600 394.800 C 18.930 394.800,19.200 394.980,19.200 395.200 C 19.200 395.420,19.560 395.600,20.000 395.600 C 20.440 395.600,20.800 395.780,20.800 396.000 C 20.800 396.220,21.160 396.400,21.600 396.400 C 22.040 396.400,22.400 396.580,22.400 396.800 C 22.400 397.020,22.760 397.200,23.200 397.200 C 23.640 397.200,24.000 397.380,24.000 397.600 C 24.000 397.820,24.439 398.000,24.976 398.000 C 25.513 398.000,26.064 398.180,26.200 398.400 C 26.336 398.620,26.872 398.800,27.390 398.800 C 27.909 398.800,28.408 399.025,28.500 399.300 C 28.745 400.036,371.255 400.036,371.500 399.300 C 371.592 399.025,372.091 398.800,372.610 398.800 C 373.128 398.800,373.664 398.620,373.800 398.400 C 373.936 398.180,374.487 398.000,375.024 398.000 C 375.561 398.000,376.000 397.820,376.000 397.600 C 376.000 397.380,376.360 397.200,376.800 397.200 C 377.240 397.200,377.600 397.020,377.600 396.800 C 377.600 396.580,377.960 396.400,378.400 396.400 C 378.840 396.400,379.200 396.220,379.200 396.000 C 379.200 395.780,379.560 395.600,380.000 395.600 C 380.440 395.600,380.800 395.420,380.800 395.200 C 380.800 394.980,381.070 394.800,381.400 394.800 C 381.730 394.800,382.000 394.620,382.000 394.400 C 382.000 394.180,382.270 394.000,382.600 394.000 C 382.930 394.000,383.200 393.850,383.200 393.668 C 383.200 393.485,383.695 393.080,384.300 392.768 C 386.608 391.577,392.400 385.807,392.400 384.699 C 392.400 384.412,392.760 383.917,393.200 383.600 C 393.640 383.283,394.000 382.793,394.000 382.512 C 394.000 382.230,394.180 382.000,394.400 382.000 C 394.620 382.000,394.800 381.730,394.800 381.400 C 394.800 381.070,394.980 380.800,395.200 380.800 C 395.420 380.800,395.600 380.440,395.600 380.000 C 395.600 379.560,395.780 379.200,396.000 379.200 C 396.220 379.200,396.400 378.840,396.400 378.400 C 396.400 377.960,396.580 377.600,396.800 377.600 C 397.020 377.600,397.200 377.240,397.200 376.800 C 397.200 376.360,397.380 376.000,397.600 376.000 C 397.820 376.000,398.000 375.561,398.000 375.024 C 398.000 374.487,398.180 373.936,398.400 373.800 C 398.620 373.664,398.800 373.128,398.800 372.610 C 398.800 372.091,399.025 371.592,399.300 371.500 C 400.036 371.255,400.036 28.745,399.300 28.500 C 399.025 28.408,398.800 27.909,398.800 27.390 C 398.800 26.872,398.620 26.336,398.400 26.200 C 398.180 26.064,398.000 25.513,398.000 24.976 C 398.000 24.439,397.820 24.000,397.600 24.000 C 397.380 24.000,397.200 23.640,397.200 23.200 C 397.200 22.760,397.020 22.400,396.800 22.400 C 396.580 22.400,396.400 22.040,396.400 21.600 C 396.400 21.160,396.220 20.800,396.000 20.800 C 395.780 20.800,395.600 20.440,395.600 20.000 C 395.600 19.560,395.420 19.200,395.200 19.200 C 394.980 19.200,394.800 18.930,394.800 18.600 C 394.800 18.270,394.620 18.000,394.400 18.000 C 394.180 18.000,394.000 17.770,394.000 17.488 C 394.000 17.207,393.640 16.717,393.200 16.400 C 392.760 16.083,392.400 15.588,392.400 15.301 C 392.400 14.356,385.833 7.602,384.911 7.599 C 384.740 7.599,383.970 7.059,383.200 6.400 C 382.430 5.741,381.575 5.201,381.300 5.201 C 381.025 5.200,380.800 5.020,380.800 4.800 C 380.800 4.580,380.440 4.400,380.000 4.400 C 379.560 4.400,379.200 4.220,379.200 4.000 C 379.200 3.780,378.840 3.600,378.400 3.600 C 377.960 3.600,377.600 3.420,377.600 3.200 C 377.600 2.980,377.240 2.800,376.800 2.800 C 376.360 2.800,376.000 2.620,376.000 2.400 C 376.000 2.180,375.561 2.000,375.024 2.000 C 374.487 2.000,373.936 1.820,373.800 1.600 C 373.664 1.380,373.128 1.200,372.610 1.200 C 372.091 1.200,371.592 0.975,371.500 0.700 C 371.343 0.229,35.199 -0.174,30.100 0.291 M157.520 110.080 C 157.873 110.433,158.000 113.830,158.000 122.874 L 158.000 135.189 170.700 135.294 L 183.400 135.400 183.400 200.400 L 183.400 265.400 170.706 265.506 L 158.011 265.611 157.906 278.106 L 157.800 290.600 117.900 290.702 L 78.000 290.804 78.000 278.445 C 78.000 267.544,77.925 266.057,77.367 265.843 C 77.019 265.709,71.279 265.600,64.610 265.600 C 53.923 265.600,52.457 265.525,52.243 264.967 C 51.926 264.141,51.926 212.259,52.243 211.433 C 52.509 210.740,79.629 210.450,80.697 211.128 C 81.083 211.373,81.217 217.129,81.297 236.822 L 81.400 262.200 117.800 262.200 L 154.200 262.200 154.200 200.400 L 154.200 138.600 116.100 138.498 L 78.000 138.396 78.000 123.998 L 78.000 109.600 117.520 109.600 C 147.724 109.600,157.153 109.713,157.520 110.080 M347.905 160.733 C 348.300 160.983,348.387 164.114,348.305 175.027 L 348.200 189.000 335.500 189.106 L 322.800 189.211 322.800 201.326 C 322.800 210.215,322.672 213.568,322.320 213.920 C 321.967 214.273,318.570 214.400,309.526 214.400 L 297.211 214.400 297.106 227.100 L 297.000 239.800 284.100 239.906 L 271.200 240.011 271.200 251.206 L 271.200 262.400 309.800 262.400 L 348.400 262.400 348.400 276.601 L 348.400 290.802 282.700 290.701 L 217.000 290.600 217.000 276.600 L 217.000 262.600 229.800 262.400 L 242.600 262.200 242.800 249.400 L 243.000 236.600 255.300 236.494 L 267.600 236.388 267.600 224.368 C 267.600 216.847,267.755 212.058,268.014 211.574 C 268.410 210.834,268.980 210.800,281.014 210.800 L 293.600 210.800 293.600 200.000 L 293.600 189.200 255.443 189.200 C 221.017 189.200,217.262 189.138,217.043 188.567 C 216.909 188.219,216.800 182.024,216.800 174.800 C 216.800 167.576,216.909 161.381,217.043 161.033 C 217.310 160.337,346.814 160.040,347.905 160.733 " stroke="none" fill="#040404" fill-rule="evenodd"></path><path id="path3" d="M117.500 109.900 L 157.200 110.004 157.200 122.378 C 157.200 130.196,157.347 134.844,157.600 135.000 C 158.220 135.383,158.141 110.701,157.520 110.080 C 157.152 109.712,147.812 109.623,117.420 109.698 L 77.800 109.796 117.500 109.900 M183.102 200.095 C 183.184 251.782,183.103 265.022,182.702 265.305 C 182.328 265.570,182.353 265.619,182.800 265.497 C 183.454 265.319,183.952 136.192,183.301 135.541 C 183.136 135.376,183.046 164.425,183.102 200.095 M249.700 160.700 C 267.685 160.758,297.115 160.758,315.100 160.700 C 333.085 160.642,318.370 160.595,282.400 160.595 C 246.430 160.595,231.715 160.642,249.700 160.700 M348.095 174.694 L 348.000 188.789 335.500 188.900 L 323.000 189.012 335.513 189.106 C 345.256 189.179,348.068 189.089,348.218 188.698 C 348.324 188.421,348.361 181.986,348.300 174.398 L 348.189 160.600 348.095 174.694 M216.980 174.800 C 216.980 182.390,217.034 185.495,217.099 181.700 C 217.165 177.905,217.165 171.695,217.099 167.900 C 217.034 164.105,216.980 167.210,216.980 174.800 M236.100 189.100 C 246.605 189.159,263.795 189.159,274.300 189.100 C 284.805 189.041,276.210 188.992,255.200 188.992 C 234.190 188.992,225.595 189.041,236.100 189.100 M293.693 199.900 L 293.600 210.800 281.024 210.800 C 274.107 210.800,268.364 210.935,268.262 211.100 C 268.159 211.265,273.826 211.350,280.855 211.289 C 290.561 211.205,293.679 211.059,293.824 210.683 C 293.928 210.410,293.962 205.420,293.900 199.594 L 293.786 189.000 293.693 199.900 M322.300 189.433 C 322.135 189.598,322.000 195.191,322.000 201.861 L 322.000 213.989 309.500 214.094 L 297.000 214.200 296.800 227.062 C 296.690 234.136,296.735 239.841,296.900 239.739 C 297.065 239.636,297.200 233.893,297.200 226.976 L 297.200 214.400 309.551 214.400 C 319.522 214.400,321.990 214.294,322.357 213.852 C 322.875 213.227,322.819 188.914,322.300 189.433 M52.243 211.433 C 52.109 211.781,52.043 223.976,52.096 238.533 L 52.191 265.000 52.396 238.200 L 52.600 211.400 66.600 211.400 L 80.600 211.400 80.703 236.583 C 80.760 250.434,80.940 261.900,81.103 262.063 C 81.266 262.227,81.352 250.903,81.294 236.900 C 81.212 217.225,81.076 211.369,80.694 211.126 C 79.628 210.449,52.508 210.741,52.243 211.433 M267.600 224.200 L 267.600 236.400 255.424 236.400 C 248.727 236.400,243.164 236.535,243.062 236.700 C 242.959 236.865,248.529 236.950,255.438 236.889 L 268.000 236.778 268.000 224.389 C 268.000 217.575,267.910 212.000,267.800 212.000 C 267.690 212.000,267.600 217.490,267.600 224.200 M217.067 262.667 C 216.697 263.037,216.729 290.309,217.100 290.538 C 217.265 290.640,217.400 284.351,217.400 276.562 C 217.400 268.773,217.385 262.400,217.367 262.400 C 217.348 262.400,217.213 262.520,217.067 262.667 M347.800 276.600 C 347.800 284.410,347.935 290.800,348.100 290.800 C 348.265 290.800,348.400 284.410,348.400 276.600 C 348.400 268.790,348.265 262.400,348.100 262.400 C 347.935 262.400,347.800 268.790,347.800 276.600 M157.504 266.000 C 157.104 266.813,156.918 290.801,157.313 290.800 C 157.484 290.800,157.712 290.573,157.819 290.296 C 158.137 289.466,157.825 265.349,157.504 266.000 " stroke="none" fill="#646464" fill-rule="evenodd"></path><path id="path4" d="M162.200 135.483 C 173.247 135.766,183.108 135.774,182.939 135.500 C 182.836 135.335,177.138 135.238,170.276 135.286 C 163.414 135.333,159.780 135.422,162.200 135.483 M154.595 200.400 C 154.595 234.390,154.642 248.295,154.700 231.300 C 154.758 214.305,154.758 186.495,154.700 169.500 C 154.642 152.505,154.595 166.410,154.595 200.400 M277.700 239.899 C 281.165 239.966,286.835 239.966,290.300 239.899 C 293.765 239.833,290.930 239.778,284.000 239.778 C 277.070 239.778,274.235 239.833,277.700 239.899 M58.925 265.499 C 62.404 265.566,67.984 265.566,71.325 265.499 C 74.666 265.432,71.820 265.378,65.000 265.378 C 58.180 265.378,55.446 265.433,58.925 265.499 M164.125 265.499 C 167.604 265.566,173.184 265.566,176.525 265.499 C 179.866 265.432,177.020 265.378,170.200 265.378 C 163.380 265.378,160.646 265.433,164.125 265.499 " stroke="none" fill="#7c7c7c" fill-rule="evenodd"></path></g></svg>