<svg id="Layer_1" data-name="Layer 1" xmlns="http://www.w3.org/2000/svg" viewBox="0 0 1000 1000"><defs><style>.cls-1,.cls-2{fill:#002d74;}.cls-1{fill-rule:evenodd;}</style></defs><path class="cls-1" d="M490,400a1072.63,1072.63,0,0,0-212.56,23.14C308.12,617.58,429.61,712.26,490,745.6Zm-91,39.15a77.63,77.63,0,1,0,77.64,77.61A77.7,77.7,0,0,0,399,439.15m3.35,74.27h30.15a88.08,88.08,0,0,0-2.34-17.12A176.07,176.07,0,0,1,402.32,499Zm26-23.59a90.11,90.11,0,0,0-7.5-17.17,145.84,145.84,0,0,1-18.47,1.64v18a174,174,0,0,0,26-2.5M416.9,466.44a98.62,98.62,0,0,0-14.58-17.06v18.19a127.08,127.08,0,0,0,14.58-1.13m7.26-1.16a132.8,132.8,0,0,0,17.92-4.73,70.46,70.46,0,0,0-32.93-13.89,104.38,104.38,0,0,1,15,18.62M381,466.44a131.51,131.51,0,0,0,14.68,1.13v-18.3A98.69,98.69,0,0,0,381,466.44m7.75-19.77a70.35,70.35,0,0,0-32.81,13.88,127.05,127.05,0,0,0,17.82,4.7,105.89,105.89,0,0,1,15-18.58m-11.6,26a91,91,0,0,0-7.53,17.18,174.23,174.23,0,0,0,26.06,2.51v-18a142.71,142.71,0,0,1-18.53-1.66m-9.38,23.63a87.07,87.07,0,0,0-2.34,17.15h30.25V499a174.3,174.3,0,0,1-27.91-2.72M361.19,495a174.31,174.31,0,0,1-26.5-8.05,70.11,70.11,0,0,0-6.46,26.47h30.48A93.31,93.31,0,0,1,361.19,495m-33,25.11a69.8,69.8,0,0,0,6.46,26.48,174.2,174.2,0,0,1,26.5-8,93.61,93.61,0,0,1-2.48-18.46Zm39.51,17.15a177.45,177.45,0,0,1,27.89-2.72V520.11H365.38a87.12,87.12,0,0,0,2.36,17.15m1.86,6.46a89.42,89.42,0,0,0,7.53,17.22,138.36,138.36,0,0,1,18.5-1.65v-18a172.13,172.13,0,0,0-26,2.48M381,567.12a99.43,99.43,0,0,0,14.68,17.17V565.94A144.69,144.69,0,0,0,381,567.12m-7.24,1.17A128.48,128.48,0,0,0,355.89,573a70.35,70.35,0,0,0,32.81,13.88,105.59,105.59,0,0,1-15-18.59m43.17-1.22c-4.81-.62-9.69-1-14.56-1.13v18.25a97.64,97.64,0,0,0,14.56-17.12m-7.73,19.84A71.21,71.21,0,0,0,442.08,573a131.37,131.37,0,0,0-17.92-4.74,105.29,105.29,0,0,1-15,18.65m11.61-26a93.4,93.4,0,0,0,7.53-17.21,168.81,168.81,0,0,0-26-2.47v18a140.81,140.81,0,0,1,18.44,1.63m9.37-23.66a88.73,88.73,0,0,0,2.34-17.15H402.32v14.43a176.09,176.09,0,0,1,27.81,2.72m6.55,1.3a175.88,175.88,0,0,1,26.58,8,69.86,69.86,0,0,0,6.48-26.48h-30.6a94.34,94.34,0,0,1-2.46,18.45m33.06-25.14A70.13,70.13,0,0,0,463.26,487,173.7,173.7,0,0,1,436.68,495a94.14,94.14,0,0,1,2.46,18.42Zm-21.8-47.87a139.7,139.7,0,0,1-20.28,5.85,95.12,95.12,0,0,1,7.22,17.14A165.49,165.49,0,0,0,460.15,481a72.2,72.2,0,0,0-12.21-15.44M337.81,481A168.89,168.89,0,0,0,363,488.54a97,97,0,0,1,7.24-17.17A136.49,136.49,0,0,1,350,465.55,71.67,71.67,0,0,0,337.81,481M350,568a136,136,0,0,1,20.18-5.8A97.3,97.3,0,0,1,363,545a170,170,0,0,0-25.15,7.52A70.64,70.64,0,0,0,350,568m110.11-15.47A170.12,170.12,0,0,0,434.88,545a97.48,97.48,0,0,1-7.22,17.19A137.34,137.34,0,0,1,447.94,568a71.15,71.15,0,0,0,12.21-15.47"/><path class="cls-2" d="M270.24,328.85l0-39.88A11.57,11.57,0,0,1,279,277.78l.28-.08a1057.33,1057.33,0,0,1,441.21-.06l.17.06A11.53,11.53,0,0,1,729.79,289l0,39.88a616.09,616.09,0,0,1-4.43,74.35,1097,1097,0,0,0-450.66.05,615,615,0,0,1-4.44-74.4M500,288.07c-34.69-12.76-84.37-15.53-114.55-9.21l-13.16,10.23-3.52.53a3.47,3.47,0,0,0-2.52,1.75l-36.71,81.15a2.5,2.5,0,0,0,2.77,3.74C388.14,365.65,447.4,362.38,500,362.38h0c52.57,0,111.85,3.27,167.72,13.88a2.5,2.5,0,0,0,2.78-3.74L633.8,291.37a3.47,3.47,0,0,0-2.51-1.75l-3.53-.53L614.6,278.86c-30.18-6.32-79.87-3.55-114.55,9.21Z"/><path class="cls-2" d="M497.19,351.28c-45.24-14.82-97.1-17.06-134-10.09l18.25-51.88-12.12,9.18L344.16,364c33.57-5.45,109.39-11.59,146.92-11.07a14,14,0,0,1,6.11-1.65"/><path class="cls-2" d="M502.24,351.28c45.24-14.82,97.17-17.06,134.08-10.09L618,289.31l12.11,9.18L655.3,364c-33.56-5.45-109.38-11.59-146.95-11.07a13.77,13.77,0,0,0-6.11-1.65"/><path class="cls-2" d="M510,546.34V745.58a360.35,360.35,0,0,0,42.53-27.82V574.63Z"/><path class="cls-2" d="M552.57,401.29c-14.15-.68-28.35-1.16-42.53-1.29v47.29l42.53,28.29Z"/><path class="cls-2" d="M637.64,532.23V408.83c-14.14-1.8-28.3-3.44-42.52-4.7v99.76Z"/><path class="cls-2" d="M595.12,603v77.82a424.93,424.93,0,0,0,42.52-49.39v-.12Z"/><path class="cls-2" d="M637.64,631.39s.05,0,.07-.06l-.07-.05Z"/><path class="cls-2" d="M680.27,560.6c18.78-39,34-84.49,42.33-137.51q-21.12-4.48-42.43-8V560.52Z"/><polygon class="cls-2" points="552.57 475.61 552.57 574.65 595.12 602.96 595.12 503.89 552.57 475.61"/><path class="cls-2" d="M680.17,560.52l-42.53-28.28v99l.07.05a445.31,445.31,0,0,0,42.46-70.52Z"/><path class="cls-2" d="M680.17,560.83a.87.87,0,0,1,.1-.24l-.1-.06Z"/></svg>