<svg width="180" height="45" viewBox="0 0 180 45" fill="none" xmlns="http://www.w3.org/2000/svg">
<g clip-path="url(#clip0_1165_274)">
<path d="M114.308 37.4942C115.175 37.4942 115.544 37.2051 115.544 36.5343C115.544 35.8635 115.175 35.6091 114.32 35.6091H113.014V37.4942H114.308ZM114.343 34.8805C115.001 34.8805 115.325 34.6029 115.325 34.0594C115.325 33.5158 114.99 33.2498 114.343 33.2498H113.014V34.8805H114.343ZM112.159 32.4634H114.481C115.475 32.4634 116.18 33.0879 116.18 33.99C116.18 34.522 115.926 34.9499 115.533 35.1581C116.064 35.3778 116.399 35.8867 116.399 36.5459C116.399 37.7024 115.683 38.2922 114.308 38.2922H112.159V32.4749V32.4634Z" fill="white"/>
<path d="M119.311 32.4751H118.456V38.2924H119.311V32.4751Z" fill="white"/>
<path d="M123.828 33.1457C122.823 33.1457 122.21 33.9899 122.21 35.3777C122.21 36.7655 122.823 37.6098 123.828 37.6098C124.833 37.6098 125.457 36.7655 125.457 35.3777C125.457 33.9899 124.833 33.1457 123.828 33.1457ZM123.828 32.3477C125.318 32.3477 126.312 33.562 126.312 35.3777C126.312 37.1935 125.33 38.4078 123.828 38.4078C122.326 38.4078 121.355 37.1935 121.355 35.3777C121.355 33.562 122.349 32.3477 123.828 32.3477Z" fill="white"/>
<path d="M128.784 36.1992C128.912 37.1822 129.397 37.6217 130.367 37.6217C131.095 37.6217 131.569 37.2979 131.569 36.8006C131.569 36.257 131.222 35.9795 130.078 35.6094C128.68 35.1468 128.218 34.7188 128.218 33.9093C128.218 32.9841 129.004 32.3364 130.113 32.3364C130.668 32.3364 131.141 32.4983 131.534 32.799C131.927 33.1113 132.158 33.5161 132.25 34.0249L131.419 34.21C131.234 33.4929 130.806 33.1229 130.113 33.1229C129.478 33.1229 129.062 33.4351 129.062 33.8977C129.062 34.2909 129.374 34.5222 130.356 34.8345C131.858 35.3318 132.412 35.8407 132.412 36.7659C132.412 37.6911 131.569 38.3966 130.356 38.3966C128.958 38.3966 128.103 37.6795 127.953 36.3495L128.796 36.1876L128.784 36.1992Z" fill="white"/>
<path d="M136.513 32.3477C137.703 32.3477 138.616 33.1572 138.766 34.3947L137.923 34.5335C137.761 33.6314 137.287 33.1457 136.513 33.1457C135.508 33.1457 134.896 33.9899 134.896 35.3777C134.896 36.7655 135.508 37.6098 136.513 37.6098C137.334 37.6098 137.819 37.0894 137.923 36.0948L138.778 36.222C138.72 36.8928 138.489 37.4363 138.085 37.8295C137.68 38.2228 137.16 38.4078 136.513 38.4078C135.011 38.4078 134.041 37.2166 134.041 35.3777C134.041 33.5389 135.035 32.3477 136.513 32.3477Z" fill="white"/>
<path d="M141.608 32.4751H140.753V38.2924H141.608V32.4751Z" fill="white"/>
<path d="M143.988 32.4751H147.547V33.2731H144.843V34.9153H147.316V35.6786H144.843V37.4944H147.547V38.2924H143.988V32.4751Z" fill="white"/>
<path d="M149.684 32.4751H150.631L153.058 36.893H153.069V32.4751H153.924V38.2924H152.977L150.551 33.8629H150.539V38.2924H149.684V32.4751Z" fill="white"/>
<path d="M158.453 32.3477C159.643 32.3477 160.556 33.1572 160.706 34.3947L159.863 34.5335C159.701 33.6314 159.227 33.1457 158.453 33.1457C157.448 33.1457 156.836 33.9899 156.836 35.3777C156.836 36.7655 157.448 37.6098 158.453 37.6098C159.274 37.6098 159.759 37.0894 159.863 36.0948L160.718 36.222C160.66 36.8928 160.429 37.4363 160.025 37.8295C159.62 38.2228 159.1 38.4078 158.453 38.4078C156.951 38.4078 155.981 37.2166 155.981 35.3777C155.981 33.5389 156.975 32.3477 158.453 32.3477Z" fill="white"/>
<path d="M162.682 32.4751H166.252V33.2731H163.537V34.9153H166.021V35.6786H163.537V37.4944H166.252V38.2924H162.682V32.4751Z" fill="white"/>
<path d="M168.805 36.1992C168.932 37.1822 169.417 37.6217 170.388 37.6217C171.115 37.6217 171.589 37.2979 171.589 36.8006C171.589 36.257 171.243 35.9795 170.099 35.6094C168.701 35.1468 168.239 34.7188 168.239 33.9093C168.239 32.9841 169.024 32.3364 170.133 32.3364C170.688 32.3364 171.162 32.4983 171.554 32.799C171.947 33.1113 172.178 33.5161 172.271 34.0249L171.439 34.21C171.254 33.4929 170.827 33.1229 170.133 33.1229C169.498 33.1229 169.082 33.4351 169.082 33.8977C169.082 34.2909 169.394 34.5222 170.376 34.8345C171.878 35.3318 172.421 35.8407 172.421 36.7659C172.421 37.6911 171.578 38.3966 170.365 38.3966C168.967 38.3966 168.112 37.6795 167.961 36.3495L168.805 36.1876V36.1992Z" fill="white"/>
<path d="M114.412 14.6763C114.412 13.0919 113.13 12.132 111.235 12.132H108.023V17.2438H111.131C113.28 17.2438 114.412 16.1567 114.412 14.6763ZM108.023 9.58767H110.958C112.933 9.58767 113.985 8.52368 113.985 7.17055C113.985 5.73648 112.922 4.7997 111.05 4.7997H108.023V9.58767ZM117.809 15.0927C117.809 17.8568 115.718 20.2276 111.35 20.2276H104.592V1.85059H111.05C115.14 1.85059 117.289 3.97857 117.289 6.71951C117.289 8.8475 116.099 10.1544 114.528 10.7673C116.677 11.4844 117.809 13.0341 117.809 15.1158" fill="white"/>
<path d="M119.091 6.66186H122.499V20.2393H119.091V6.66186ZM118.872 2.50997C118.872 1.44597 119.715 0.613281 120.789 0.613281C121.864 0.613281 122.684 1.45754 122.684 2.50997C122.684 3.56239 121.841 4.38352 120.789 4.38352C119.738 4.38352 118.872 3.57396 118.872 2.50997Z" fill="white"/>
<path d="M127.063 13.173C127.063 15.301 128.565 16.9549 130.587 16.9549C132.608 16.9549 134.087 15.2779 134.087 13.1268C134.087 10.9757 132.585 9.40281 130.587 9.40281C128.588 9.40281 127.063 11.0566 127.063 13.173ZM134.214 8.77829L134.584 6.6503H137.426V18.7012C137.426 23.2463 134.272 25.7559 130.124 25.7559C128.253 25.7559 126.427 25.1661 125.018 24.1484V20.8176C126.37 21.9973 128.195 22.7374 129.847 22.7374C132.239 22.7374 134.018 21.2802 134.018 19.106V17.6025C133.151 18.9556 131.603 19.9502 129.709 19.9502C126.531 19.9502 123.643 17.2093 123.643 13.1384C123.643 9.06742 126.601 6.34961 129.755 6.34961C131.673 6.34961 133.302 7.33265 134.214 8.76673" fill="white"/>
<path d="M151.371 12.583H143.134V20.2392H139.679V1.85059H143.134V9.40263H151.371V1.85059H154.826V20.2392H151.371V12.583Z" fill="white"/>
<path d="M166.76 13.4505C166.76 11.0796 165.258 9.42579 163.259 9.42579C161.26 9.42579 159.678 11.1027 159.678 13.4505C159.678 15.7982 161.203 17.4751 163.259 17.4751C165.316 17.4751 166.76 15.8213 166.76 13.4505ZM156.258 13.4736C156.258 9.14822 159.239 6.33789 162.323 6.33789C164.322 6.33789 165.974 7.32093 166.91 8.88222L167.257 6.66172H170.11V20.2392H167.257L166.91 18.0187C165.974 19.58 164.322 20.5862 162.323 20.5862C159.239 20.5862 156.258 17.7411 156.258 13.4736Z" fill="white"/>
<path d="M176.06 6.66168H179.757V9.50671H176.06V14.9886C176.06 16.8159 177.215 17.5329 178.798 17.5329C179.168 17.5329 179.584 17.4867 180.011 17.4057V20.3201C179.572 20.4242 178.948 20.5167 178.059 20.5167C174.685 20.5167 172.756 18.4928 172.756 15.1621V9.50671H170.78V6.66168H172.779V3.50439H176.06V6.66168Z" fill="white"/>
<path d="M66.6971 10.9984L59.5109 3.8049C54.439 -1.2722 46.2131 -1.2722 41.1412 3.8049L33.9551 10.9984H66.6855H66.6971Z" fill="white"/>
<path d="M32.7304 45.0001L50.3376 27.3748L33.9666 10.9985L0 45.0001H32.7304Z" fill="white"/>
<path d="M100.675 45.0001L66.6968 10.9985L50.3374 27.3748L67.9446 45.0001H100.675Z" fill="white"/>
</g>
<defs>
<clipPath id="clip0_1165_274">
<rect width="180" height="45" fill="white"/>
</clipPath>
</defs>
</svg>
