<?xml version="1.0" encoding="UTF-8" standalone="no" ?>
<!DOCTYPE svg PUBLIC "-//W3C//DTD SVG 1.1//EN" "http://www.w3.org/Graphics/SVG/1.1/DTD/svg11.dtd">
<svg xmlns="http://www.w3.org/2000/svg" xmlns:xlink="http://www.w3.org/1999/xlink" version="1.1" width="1280" height="540" viewBox="-52.38 -30 1280 540" xml:space="preserve">
<desc>Created with Fabric.js 5.2.4</desc>
<defs>
</defs>
<rect x="0" y="0" width="100%" height="100%" fill="transparent"></rect>
<g transform="matrix(1 0 0 1 640 270)" id="78e737f0-1b25-431b-8f8f-491b5743515d"  >
<rect style="stroke: none; stroke-width: 1; stroke-dasharray: none; stroke-linecap: butt; stroke-dashoffset: 0; stroke-linejoin: miter; stroke-miterlimit: 4; fill: rgb(255,255,255); fill-rule: nonzero; opacity: 1; visibility: hidden;" vector-effect="non-scaling-stroke"  x="-640" y="-270" rx="0" ry="0" width="1280" height="540" />
</g>
<g transform="matrix(Infinity NaN NaN Infinity 0 0)" id="ba97285e-606f-4baf-a365-aa060689c077"  >
</g>
<g transform="matrix(10.25 0 0 10.14 581.31 243.34)" id="776e663a-5585-4822-b516-7f6618304516"  >
<path style="stroke: rgb(0,0,0); stroke-width: 0; stroke-dasharray: none; stroke-linecap: butt; stroke-dashoffset: 0; stroke-linejoin: miter; stroke-miterlimit: 4; fill: rgb(226,229,234); fill-rule: nonzero; opacity: 0.9;" vector-effect="non-scaling-stroke"  transform=" translate(-40.1, -19.6)" d="M 80.1 17.1 L 80.1 12.3 L 61.8 12.3 L 61.8 30 C 61.699999999999996 27.9 60.9 26.3 59.5 25.2 C 58.5 24.4 57 23.8 55 23.3 L 50.5 22.2 C 48.7 21.8 47.6 21.4 47.1 21.099999999999998 C 46.6 20.9 46.2 20.499999999999996 46.1 19.999999999999996 L 46.1 19.999999999999996 L 46.1 19.999999999999996 L 46.1 19.999999999999996 C 45.9 19.699999999999996 45.9 19.399999999999995 45.9 18.999999999999996 C 45.9 18.199999999999996 46.199999999999996 17.499999999999996 46.8 16.999999999999996 L 46.8 16.999999999999996 L 46.8 16.999999999999996 L 46.8 16.999999999999996 L 46.8 16.999999999999996 C 47 16.899999999999995 47 16.799999999999997 47.199999999999996 16.699999999999996 C 48.099999999999994 16.199999999999996 49.199999999999996 15.799999999999995 50.599999999999994 15.799999999999995 C 51.89999999999999 15.799999999999995 52.89999999999999 15.999999999999995 53.8 16.399999999999995 C 55.099999999999994 16.999999999999996 55.8 18.199999999999996 55.9 19.699999999999996 L 61 19.699999999999996 C 60.9 16.999999999999996 59.9 14.899999999999995 58 13.399999999999995 C 56.1 11.899999999999995 53.7 11.199999999999996 50.9 11.199999999999996 C 47.6 11.199999999999996 45.1 11.999999999999996 43.3 13.499999999999996 C 42.3 14.399999999999997 41.5 15.499999999999996 41.099999999999994 16.799999999999997 L 41.099999999999994 16.799999999999997 C 40.99999999999999 16.999999999999996 40.89999999999999 17.299999999999997 40.89999999999999 17.699999999999996 L 40.89999999999999 17.699999999999996 C 40.29999999999999 20.699999999999996 38.29999999999999 22.699999999999996 35.099999999999994 22.699999999999996 C 29.999999999999993 22.699999999999996 27.999999999999993 18.299999999999997 27.999999999999993 13.999999999999996 C 27.999999999999993 9.399999999999997 29.89999999999999 4.9999999999999964 35.099999999999994 4.9999999999999964 C 37.99999999999999 4.9999999999999964 40.39999999999999 6.899999999999997 40.8 9.599999999999996 L 46.3 9.599999999999996 C 45.599999999999994 3.599999999999996 40.8 0.2999999999999954 35.099999999999994 0.2999999999999954 C 27.399999999999995 0.2999999999999954 22.699999999999996 5.799999999999995 22.299999999999994 12.999999999999995 L 22.299999999999994 1 L 16.499999999999993 1 L 16.499999999999993 17.2 C 16.499999999999993 21.099999999999998 15.199999999999992 22.9 11.099999999999993 22.9 C 6.399999999999992 22.9 5.699999999999992 20.099999999999998 5.699999999999992 17.2 L 5.699999999999992 1 L 0.1 1 L 0.1 17.2 C 0.1 24.299999999999997 4.199999999999999 27.7 11.2 27.7 C 18.2 27.7 22.299999999999997 24.3 22.299999999999997 17.2 L 22.299999999999997 15.2 C 22.699999999999996 22.2 27.4 27.7 35.099999999999994 27.7 C 38.3 27.7 40.89999999999999 26.7 42.99999999999999 24.9 C 43.199999999999996 25 43.199999999999996 25.099999999999998 43.39999999999999 25.2 C 44.39999999999999 25.9 46.39999999999999 26.599999999999998 49.099999999999994 27.2 L 51.89999999999999 27.8 C 53.49999999999999 28.2 54.69999999999999 28.6 55.49999999999999 29 C 56.29999999999999 29.5 56.699999999999996 30.2 56.699999999999996 31 C 56.699999999999996 32.5 55.9 33.5 54.4 34 C 53.6 34.3 52.5 34.4 51.199999999999996 34.4 C 48.99999999999999 34.4 47.49999999999999 33.9 46.599999999999994 32.8 C 46.099999999999994 32.199999999999996 45.699999999999996 31.299999999999997 45.599999999999994 30.199999999999996 L 40.49999999999999 30.199999999999996 C 40.49999999999999 32.9 41.49999999999999 34.99999999999999 43.49999999999999 36.599999999999994 C 45.39999999999999 38.199999999999996 48.199999999999996 38.89999999999999 51.49999999999999 38.89999999999999 C 54.79999999999999 38.89999999999999 57.39999999999999 38.099999999999994 59.29999999999999 36.599999999999994 C 60.99999999999999 35.199999999999996 61.89999999999999 33.39999999999999 61.99999999999999 31.199999999999996 L 61.99999999999999 38.49999999999999 L 67.8 38.49999999999999 L 67.8 27.499999999999993 L 78.7 27.499999999999993 L 78.7 23.099999999999994 L 67.6 23.099999999999994 L 67.6 17.099999999999994 L 80.1 17.1 L 80.1 17.1 z" stroke-linecap="round" />
</g>
</svg>